<?xml version="1.0" standalone="no"?>
<!DOCTYPE svg PUBLIC "-//W3C//DTD SVG 20010904//EN"
 "http://www.w3.org/TR/2001/REC-SVG-20010904/DTD/svg10.dtd">
<svg version="1.0" xmlns="http://www.w3.org/2000/svg"
 width="260.000000pt" height="260.000000pt" viewBox="0 0 260.000000 260.000000"
 preserveAspectRatio="xMidYMid meet">
<metadata>
Created by potrace 1.11, written by Peter Selinger 2001-2013
</metadata>
<g transform="translate(0.000000,260.000000) scale(0.100000,-0.100000)"
fill="#000000" stroke="none">
<path d="M1377 2326 c-10 -8 -27 -12 -38 -9 -10 3 -25 1 -32 -5 -7 -6 -30 -13
-50 -15 -24 -3 -46 -14 -62 -31 -25 -27 -45 -34 -45 -16 0 6 -4 10 -9 10 -4 0
-7 -11 -5 -25 2 -22 -1 -25 -19 -20 -19 5 -18 3 5 -15 23 -18 27 -27 22 -53
-3 -18 -6 -80 -7 -139 -2 -96 0 -109 21 -137 29 -40 29 -95 -1 -154 l-24 -46
25 20 c32 25 46 24 32 -1 -10 -19 -8 -20 47 -19 56 2 56 2 18 9 -37 7 -39 9
-17 15 18 5 49 17 67 27 14 8 20 8 23 -1 2 -6 8 -11 14 -11 6 0 7 7 4 16 -5
13 -4 14 7 5 21 -17 83 44 66 65 -9 11 -9 14 1 14 7 0 33 19 59 42 l46 43 5
-28 c5 -26 6 -27 26 -13 16 12 22 30 27 82 4 37 13 77 22 90 8 13 15 37 15 54
0 16 4 30 10 30 6 0 6 9 0 25 -5 14 -9 29 -8 33 7 25 -65 127 -83 117 -5 -4
-9 0 -9 8 0 7 -11 19 -25 25 -32 15 -38 15 -30 2 3 -5 -3 -10 -15 -10 -12 0
-19 4 -16 8 3 5 -9 6 -26 4 -21 -3 -29 -1 -24 7 9 14 5 14 -17 -3z"/>
<path d="M1503 1731 l-29 -86 -100 -1 c-93 -1 -104 -3 -162 -34 -35 -18 -77
-51 -93 -72 -19 -24 -39 -38 -53 -38 -22 0 -22 2 -15 57 4 31 17 69 29 85 26
36 12 37 -63 3 -69 -30 -86 -54 -98 -140 -6 -47 -18 -80 -39 -109 -54 -79
-118 -221 -155 -340 -31 -103 -36 -133 -38 -237 -1 -83 2 -122 11 -131 14 -14
16 -32 3 -24 -5 3 -19 -10 -32 -29 -16 -24 -32 -35 -49 -36 -14 0 -34 -4 -45
-9 -14 -6 -8 -8 22 -5 l42 5 -1 -34 c-1 -28 -6 -35 -27 -39 -14 -3 -27 -2 -29
2 -1 4 -33 4 -70 0 -37 -5 -74 -8 -81 -8 -10 -1 -3 -14 19 -36 18 -19 37 -32
42 -29 5 3 7 0 6 -6 -2 -7 12 -18 31 -24 19 -7 37 -18 39 -26 3 -8 0 -10 -9
-6 -8 4 -5 0 6 -9 18 -14 21 -14 38 7 10 13 15 16 11 8 -5 -12 -4 -12 6 -3 17
16 3 35 -21 28 -10 -4 -19 -2 -19 3 0 15 32 24 40 12 4 -6 14 -8 23 -4 13 5
16 2 10 -12 -5 -14 -3 -16 11 -11 14 6 17 3 12 -9 -3 -8 -6 -18 -6 -20 0 -3
-4 -3 -10 1 -11 7 -50 -16 -50 -30 0 -12 77 -61 91 -58 5 2 9 -1 9 -7 0 -5 30
-25 68 -44 169 -85 449 -145 466 -100 5 14 9 13 24 -6 16 -20 23 -21 48 -13
22 8 28 16 27 34 -2 13 6 35 16 48 l19 24 31 -43 c40 -55 40 -42 0 23 -17 27
-28 56 -24 65 4 12 8 13 17 4 22 -22 30 -12 13 15 -12 17 -14 28 -7 31 6 2 8
10 5 19 -5 13 -2 15 15 11 24 -7 28 2 11 19 -9 9 -7 20 7 44 21 36 37 40 42 9
2 -11 14 -23 28 -26 13 -3 24 -12 24 -20 0 -11 -6 -10 -35 2 -19 7 -37 14 -40
14 -13 0 9 -22 47 -51 48 -34 43 -37 -15 -8 l-42 21 25 -27 c14 -15 40 -33 59
-41 31 -13 33 -16 17 -27 -19 -14 -12 -43 21 -85 l18 -22 70 24 c125 42 148
60 122 89 -12 13 -30 42 -54 87 -7 14 -13 37 -13 51 0 15 -7 29 -15 33 -22 8
-18 34 5 41 23 7 50 -10 50 -30 0 -7 7 -18 15 -25 13 -11 14 -10 10 3 -4 8 -2
18 4 22 7 4 4 19 -9 46 -15 29 -27 39 -44 39 -23 0 -41 -23 -37 -45 1 -5 -7 1
-18 15 -20 25 -19 45 2 34 7 -3 4 1 -5 9 -10 8 -20 32 -22 53 -2 21 -6 46 -9
54 -3 8 -6 22 -6 30 -3 45 -8 71 -15 77 -4 5 16 13 46 19 48 10 44 11 -52 7
-126 -6 -152 1 -155 45 -2 21 1 30 9 25 6 -4 4 2 -4 12 -8 10 -10 16 -4 12 16
-10 12 66 -5 86 -8 10 -8 17 -2 21 6 4 8 13 5 20 -3 7 4 37 16 66 11 29 19 54
17 57 -2 2 -10 -10 -17 -27 -13 -31 -34 -40 -44 -17 -3 6 -3 -5 0 -25 4 -24 2
-38 -5 -38 -6 0 -8 -11 -4 -30 6 -31 0 -35 -47 -31 -8 0 -6 -4 6 -10 17 -9 23
-24 28 -68 4 -31 11 -77 17 -104 6 -26 8 -55 5 -64 -6 -14 -9 -14 -29 4 -28
26 -57 36 -57 20 0 -30 -29 34 -39 88 -20 102 -43 195 -49 195 -2 0 -2 -25 0
-56 l5 -55 -19 30 c-11 16 -20 45 -20 63 0 18 -7 45 -14 59 -7 15 -11 29 -8
31 2 3 0 17 -5 31 -6 14 -13 63 -16 109 -3 46 -11 107 -16 137 -11 52 -10 54
21 86 54 56 141 96 207 97 75 1 119 -9 165 -38 37 -24 53 -19 22 7 -9 7 -30
33 -47 58 -17 25 -34 49 -39 52 -4 3 5 32 21 66 35 71 45 120 25 120 -8 0 -25
-34 -41 -86z m-373 -334 c0 -2 -10 -12 -22 -23 l-23 -19 19 23 c18 21 26 27
26 19z m-26 -87 c10 -13 9 -13 -6 -1 -10 7 -18 21 -17 30 0 13 1 14 6 1 3 -8
11 -22 17 -30z m56 30 c0 -5 -4 -10 -10 -10 -5 0 -10 5 -10 10 0 6 5 10 10 10
6 0 10 -4 10 -10z m-147 -25 c-3 -9 -8 -14 -10 -11 -3 3 -2 9 2 15 9 16 15 13
8 -4z m-122 -42 c-12 -20 -14 -14 -5 12 4 9 9 14 11 11 3 -2 0 -13 -6 -23z
m109 -22 c-13 -25 -13 -34 1 -25 8 4 7 0 -1 -15 -6 -12 -15 -19 -21 -16 -5 4
-9 -2 -10 -12 0 -12 -2 -13 -6 -5 -6 16 26 92 39 92 5 0 4 -9 -2 -19z m-127
-16 c-3 -9 -8 -14 -10 -11 -3 3 -2 9 2 15 9 16 15 13 8 -4z m211 -70 c-9 -14
-19 -25 -21 -25 -3 0 2 11 11 25 18 28 21 39 6 30 -11 -7 -14 8 -3 19 17 16
23 -25 7 -49z m11 -25 c-4 -12 -2 -20 6 -20 8 0 8 -4 -2 -16 -10 -12 -10 -17
0 -23 9 -6 6 -14 -9 -32 -19 -22 -20 -22 -11 -2 17 34 12 40 -9 13 -11 -14
-20 -20 -20 -13 0 6 5 15 11 18 6 4 8 14 5 22 -3 8 2 28 11 44 20 34 27 37 18
9z m-101 -46 c9 -3 16 -14 16 -23 -1 -14 -2 -14 -14 1 -7 10 -16 15 -19 11 -4
-3 -7 -1 -7 5 0 14 2 14 24 6z m97 -87 c-13 -12 -20 -15 -16 -7 14 26 28 41
33 35 3 -3 -5 -16 -17 -28z m-144 -19 c-3 -8 -6 -5 -6 6 -1 11 2 17 5 13 3 -3
4 -12 1 -19z m163 2 c-6 -11 -16 -20 -22 -20 -6 0 -3 9 7 20 10 11 20 20 22
20 2 0 -1 -9 -7 -20z m130 -64 c0 -2 -7 -9 -15 -16 -13 -11 -14 -10 -9 4 5 14
24 23 24 12z m0 -41 c-7 -9 -15 -13 -18 -10 -3 2 1 11 8 20 7 9 15 13 18 10 3
-2 -1 -11 -8 -20z m30 2 c0 -2 -10 -12 -22 -23 l-23 -19 19 23 c18 21 26 27
26 19z m10 -30 c0 -2 -10 -12 -21 -23 -22 -19 -22 -19 -10 4 10 18 31 31 31
19z m-164 -57 c4 -34 -1 -37 -22 -15 -12 12 -12 18 -2 34 15 24 19 21 24 -19z
m140 -8 l-29 -27 23 32 c13 18 26 30 29 28 3 -3 -8 -18 -23 -33z m44 -85 c0
-2 -10 -12 -22 -23 l-23 -19 19 23 c18 21 26 27 26 19z m-555 -17 c3 -5 2 -10
-4 -10 -5 0 -13 5 -16 10 -3 6 -2 10 4 10 5 0 13 -4 16 -10z m45 -20 c12 -7
10 -9 -8 -7 -12 0 -22 5 -22 9 0 11 12 10 30 -2z m560 -26 c0 -2 -9 0 -20 6
-11 6 -20 13 -20 16 0 2 9 0 20 -6 11 -6 20 -13 20 -16z m40 22 c0 -3 -4 -8
-10 -11 -5 -3 -10 -1 -10 4 0 6 5 11 10 11 6 0 10 -2 10 -4z m70 0 c0 -2 -7
-7 -16 -10 -8 -3 -12 -2 -9 4 6 10 25 14 25 6z m-439 -53 c-9 -16 -10 -16 -11
-1 0 9 3 25 7 35 7 16 8 17 11 1 2 -10 -1 -25 -7 -35z m242 12 c-4 -11 0 -14
13 -9 18 6 17 5 -1 -9 -10 -8 -25 -13 -32 -10 -9 4 -11 0 -7 -13 4 -11 4 -16
0 -13 -16 15 -16 58 1 68 22 12 34 5 26 -14z m-563 5 c0 -5 -5 -10 -11 -10 -5
0 -7 5 -4 10 3 6 8 10 11 10 2 0 4 -4 4 -10z m270 -12 c20 -6 17 -7 -13 -4
-32 4 -40 1 -48 -17 -8 -19 -9 -20 -6 -2 1 11 -4 26 -13 32 -12 10 -9 11 20 6
19 -3 46 -10 60 -15z m368 -23 c-3 -3 -9 2 -12 12 -6 14 -5 15 5 6 7 -7 10
-15 7 -18z m-455 0 c-3 -9 -8 -14 -10 -11 -3 3 -2 9 2 15 9 16 15 13 8 -4z
m95 -7 c-2 -6 -10 -14 -16 -16 -7 -2 -10 2 -6 12 7 18 28 22 22 4z m392 -71
c0 -9 -46 36 -70 68 -8 11 5 2 28 -20 23 -21 42 -43 42 -48z m140 47 c0 -8 -4
-12 -10 -9 -5 3 -10 13 -10 21 0 8 5 12 10 9 6 -3 10 -13 10 -21z m-465 -14
c3 -5 1 -10 -5 -10 -6 0 -8 -4 -5 -10 4 -6 -1 -7 -11 -3 -11 4 -13 8 -6 11 7
2 10 8 6 13 -3 5 -1 9 5 9 5 0 13 -4 16 -10z m-364 -14 c5 3 9 0 9 -6 0 -6 5
-8 12 -4 7 4 8 3 4 -4 -9 -15 -46 3 -45 21 0 9 2 9 6 -1 2 -6 9 -10 14 -6z
m269 2 c0 -5 -12 -5 -27 -2 -40 10 -42 15 -5 12 18 -1 32 -6 32 -10z m202 -18
c3 -17 1 -33 -3 -36 -12 -7 -30 32 -23 50 10 25 21 19 26 -14z m109 13 c13
-16 12 -17 -3 -4 -10 7 -18 15 -18 17 0 8 8 3 21 -13z m-522 -33 c4 0 13 6 20
13 11 9 12 9 7 0 -4 -7 -16 -18 -28 -24 -16 -9 -19 -8 -13 2 6 9 3 11 -8 6
-14 -5 -15 -3 -4 14 10 16 13 17 15 4 2 -8 7 -15 11 -15z m515 5 c9 -14 15
-25 13 -25 -2 0 -14 11 -27 25 -13 14 -19 25 -13 25 6 0 18 -11 27 -25z m-604
-10 c0 -8 -2 -15 -4 -15 -2 0 -6 7 -10 15 -3 8 -1 15 4 15 6 0 10 -7 10 -15z
m209 -15 c3 -1 -12 -7 -34 -15 -34 -12 -94 -11 -81 2 2 3 6 3 9 1 8 -6 37 24
31 34 -3 5 11 2 31 -6 21 -9 40 -16 44 -16z m71 10 c0 -5 -4 -10 -10 -10 -5 0
-10 5 -10 10 0 6 5 10 10 10 6 0 10 -4 10 -10z m332 -34 c10 -19 8 -18 -16 3
-14 14 -26 29 -26 34 0 13 29 -12 42 -37z m267 -25 c0 -24 -1 -25 -9 -5 -4 12
-15 24 -23 27 -8 3 -17 14 -20 26 -5 20 -5 20 24 -1 19 -15 29 -30 28 -47z
m-940 18 c-13 -11 -25 -16 -27 -11 -1 5 -14 7 -27 4 -14 -2 -25 0 -25 6 0 6
15 9 35 7 19 -2 38 1 41 6 3 5 10 9 16 9 6 0 0 -9 -13 -21z m672 -31 c15 -28
5 -21 -21 15 -15 20 -17 27 -6 18 9 -8 22 -23 27 -33z m79 1 c15 -28 5 -23
-15 7 -9 15 -12 23 -6 20 6 -4 16 -16 21 -27z m-350 7 c0 -3 -4 -8 -10 -11 -5
-3 -10 -1 -10 4 0 6 5 11 10 11 6 0 10 -2 10 -4z m258 -27 c19 -30 11 -32 -11
-3 -10 13 -14 24 -10 24 5 0 14 -9 21 -21z m93 -21 c8 -15 8 -18 0 -14 -6 4
-16 16 -22 28 -8 15 -8 18 0 14 6 -4 16 -16 22 -28z m-352 -33 l0 -20 -9 20
c-5 11 -9 29 -9 40 l0 20 9 -20 c5 -11 9 -29 9 -40z m256 18 l18 -28 -21 19
c-12 11 -22 23 -22 28 0 14 7 9 25 -19z m-410 -3 c8 -13 -5 -13 -25 0 -13 8
-13 10 2 10 9 0 20 -4 23 -10z m516 -45 l10 -20 -16 20 c-9 11 -21 29 -26 40
l-10 20 16 -20 c9 -11 21 -29 26 -40z m-562 19 c14 -12 -19 -1 -35 12 -18 14
-18 14 6 3 14 -6 27 -13 29 -15z m462 -21 c13 -16 12 -17 -3 -4 -10 7 -18 15
-18 17 0 8 8 3 21 -13z m80 -10 c13 -16 12 -17 -3 -4 -17 13 -22 21 -14 21 2
0 10 -8 17 -17z m-90 -10 c13 -16 12 -17 -3 -4 -10 7 -18 15 -18 17 0 8 8 3
21 -13z m-131 -10 c0 -10 -4 -24 -9 -32 -7 -11 -10 -9 -16 8 -7 22 0 41 16 41
5 0 9 -8 9 -17z m221 -20 c13 -16 12 -17 -3 -4 -17 13 -22 21 -14 21 2 0 10
-8 17 -17z"/>
<path d="M1077 1113 c-4 -3 -7 -11 -7 -17 0 -6 5 -5 12 2 6 6 9 14 7 17 -3 3
-9 2 -12 -2z"/>
<path d="M1456 1166 c3 -9 11 -16 16 -16 13 0 5 23 -10 28 -7 2 -10 -2 -6 -12z"/>
<path d="M1461 1114 c0 -11 3 -14 6 -6 3 7 2 16 -1 19 -3 4 -6 -2 -5 -13z"/>
<path d="M1375 1045 c4 -17 11 -34 16 -39 5 -5 4 5 -1 24 -12 42 -24 55 -15
15z"/>
<path d="M1818 965 c6 -34 15 -38 54 -22 l33 14 -39 17 c-51 21 -54 21 -48 -9z"/>
<path d="M2228 858 c2 -10 6 -18 7 -18 1 0 5 8 7 18 3 11 0 19 -7 19 -7 0 -10
-8 -7 -19z"/>
<path d="M2316 838 c3 -5 10 -6 15 -3 13 9 11 12 -6 12 -8 0 -12 -4 -9 -9z"/>
<path d="M568 633 c7 -3 16 -2 19 1 4 3 -2 6 -13 5 -11 0 -14 -3 -6 -6z"/>
<path d="M1820 629 c0 -5 5 -7 10 -4 6 3 10 8 10 11 0 2 -4 4 -10 4 -5 0 -10
-5 -10 -11z"/>
<path d="M1856 611 c-7 -11 187 -11 204 -1 10 6 -23 9 -92 9 -59 0 -110 -4
-112 -8z"/>
<path d="M2122 610 c-18 -4 -43 -19 -57 -32 l-25 -25 42 8 c24 4 63 8 88 9 55
0 87 17 53 26 -13 4 -20 10 -17 15 6 11 -38 10 -84 -1z m24 -19 c-7 -11 -66
-20 -66 -10 0 7 24 14 58 18 7 0 11 -3 8 -8z"/>
<path d="M365 580 c-7 -12 2 -12 30 0 19 8 19 9 -2 9 -12 1 -25 -3 -28 -9z"/>
<path d="M448 583 c7 -3 16 -2 19 1 4 3 -2 6 -13 5 -11 0 -14 -3 -6 -6z"/>
<path d="M503 583 c9 -2 23 -2 30 0 6 3 -1 5 -18 5 -16 0 -22 -2 -12 -5z"/>
<path d="M1800 560 c0 -6 26 -10 60 -9 33 1 57 6 54 10 -7 12 -114 11 -114 -1z"/>
<path d="M2039 524 c-78 -13 -99 -20 -99 -33 0 -6 8 -7 18 -4 15 6 15 5 3 -11
-11 -13 -16 -14 -22 -4 -4 7 -11 9 -15 6 -4 -4 -15 -3 -25 2 -12 7 -20 7 -24
0 -3 -5 -14 -10 -23 -9 -14 0 -13 2 3 8 19 8 19 8 -4 20 -31 17 -34 11 -16
-38 8 -23 17 -64 21 -92 4 -27 11 -52 16 -55 6 -4 5 -10 -2 -14 -8 -5 -10 -15
-6 -26 7 -18 9 -18 26 4 11 13 24 21 29 18 5 -4 13 -1 18 7 4 7 19 18 33 24
39 17 165 126 152 131 -7 2 -12 10 -12 18 0 9 -4 12 -10 9 -5 -3 -10 0 -10 9
0 8 5 16 12 18 6 2 9 8 7 14 -3 5 -29 5 -70 -2z m-9 -40 c0 -2 -9 -4 -21 -4
-11 0 -18 4 -14 10 5 8 35 3 35 -6z m5 -24 c-3 -5 -2 -10 3 -10 6 0 12 -7 16
-15 7 -19 -3 -19 -29 1 -17 13 -18 16 -5 24 19 12 23 12 15 0z m-104 -33 c-10
-9 -11 -8 -5 6 3 10 9 15 12 12 3 -3 0 -11 -7 -18z m-58 -2 c-3 -9 -8 -14 -10
-11 -3 3 -2 9 2 15 9 16 15 13 8 -4z m67 -39 c0 -3 -4 -8 -10 -11 -5 -3 -10
-1 -10 4 0 6 5 11 10 11 6 0 10 -2 10 -4z m25 -36 c3 -5 1 -10 -4 -10 -6 0
-11 5 -11 10 0 6 2 10 4 10 3 0 8 -4 11 -10z"/>
<path d="M2123 513 c-3 -8 2 -22 11 -31 16 -16 17 -16 10 2 -6 16 -4 18 9 13
11 -4 17 -1 17 7 0 20 -40 28 -47 9z"/>
<path d="M1903 508 c2 -7 10 -13 17 -13 7 0 15 6 18 13 2 7 -5 12 -18 12 -13
0 -20 -5 -17 -12z"/>
</g>
</svg>
